<?xml version="1.0" encoding="UTF-8" standalone="no"?>
<!DOCTYPE svg PUBLIC "-//W3C//DTD SVG 1.1//EN"
 "http://www.w3.org/Graphics/SVG/1.1/DTD/svg11.dtd">
<!-- Generated by graphviz version 2.48.0 (20210717.1556)
 -->
<!-- Pages: 1 -->
<svg width="3296pt" height="433pt"
 viewBox="0.00 0.00 3295.74 433.48" xmlns="http://www.w3.org/2000/svg" xmlns:xlink="http://www.w3.org/1999/xlink">
<g id="graph0" class="graph" transform="scale(1 1) rotate(0) translate(4 429.48)">
<polygon fill="white" stroke="transparent" points="-4,4 -4,-429.48 3291.74,-429.48 3291.74,4 -4,4"/>
<!-- 10 -->
<g id="node1" class="node">
<title>10</title>
<polygon fill="#fafafa" stroke="#8b8378" stroke-width="0.5" points="1144.03,-298.48 1244.58,-298.48 1244.58,-336.48 1144.03,-336.48 1144.03,-298.48"/>
<polygon fill="mistyrose" stroke="#8b8378" stroke-width="0.5" points="1244.58,-298.48 1343.03,-298.48 1343.03,-336.48 1244.58,-336.48 1244.58,-298.48"/>
<polygon fill="none" stroke="#8b8378" points="1343.03,-336.48 1144.03,-336.48 1144.03,-298.48 1343.03,-298.48 1343.03,-336.48"/>
<text text-anchor="middle" x="1243.53" y="-321.28" font-family="Arial" font-size="14.00" fill="#8b8378">Due_A</text>
<text text-anchor="middle" x="1243.53" y="-306.28" font-family="Arial" font-size="14.00" fill="#8b8378">[good:159564 / bad:156220]</text>
</g>
<!-- 100 -->
<g id="node4" class="node">
<title>100</title>
<polygon fill="#fafafa" stroke="#8b8378" stroke-width="0.5" points="265.53,-209.48 359.53,-209.48 359.53,-247.48 265.53,-247.48 265.53,-209.48"/>
<polygon fill="mistyrose" stroke="#8b8378" stroke-width="0.5" points="359.53,-209.48 431.53,-209.48 431.53,-247.48 359.53,-247.48 359.53,-209.48"/>
<polygon fill="none" stroke="#8b8378" points="431.53,-247.48 265.53,-247.48 265.53,-209.48 431.53,-209.48 431.53,-247.48"/>
<text text-anchor="middle" x="348.53" y="-232.28" font-family="Arial" font-size="14.00" fill="#8b8378">TimeNow</text>
<text text-anchor="middle" x="348.53" y="-217.28" font-family="Arial" font-size="14.00" fill="#8b8378">[good:1983 / bad:1519]</text>
</g>
<!-- 10&#45;&gt;100 -->
<g id="edge3" class="edge">
<title>10&#45;&gt;100</title>
<path fill="none" stroke="#bababa" d="M1143.9,-306.8C969.54,-289.85 611.49,-255.04 441.75,-238.54"/>
<polygon fill="#bababa" stroke="#bababa" points="441.88,-235.04 431.58,-237.55 441.2,-242 441.88,-235.04"/>
<text text-anchor="middle" x="877.53" y="-269.28" font-family="Arial" font-size="14.00">&gt;6761.5</text>
</g>
<!-- 101 -->
<g id="node5" class="node">
<title>101</title>
<polygon fill="#fafafa" stroke="#8b8378" stroke-width="0.5" points="1144.03,-209.48 1244.45,-209.48 1244.45,-247.48 1144.03,-247.48 1144.03,-209.48"/>
<polygon fill="mistyrose" stroke="#8b8378" stroke-width="0.5" points="1244.45,-209.48 1343.03,-209.48 1343.03,-247.48 1244.45,-247.48 1244.45,-209.48"/>
<polygon fill="none" stroke="#8b8378" points="1343.03,-247.48 1144.03,-247.48 1144.03,-209.48 1343.03,-209.48 1343.03,-247.48"/>
<text text-anchor="middle" x="1243.53" y="-232.28" font-family="Arial" font-size="14.00" fill="#8b8378">PTime_A_E</text>
<text text-anchor="middle" x="1243.53" y="-217.28" font-family="Arial" font-size="14.00" fill="#8b8378">[good:157581 / bad:154701]</text>
</g>
<!-- 10&#45;&gt;101 -->
<g id="edge4" class="edge">
<title>10&#45;&gt;101</title>
<path fill="none" stroke="#bababa" d="M1243.53,-298.45C1243.53,-286.67 1243.53,-271.04 1243.53,-257.64"/>
<polygon fill="#bababa" stroke="#bababa" points="1247.03,-257.48 1243.53,-247.48 1240.03,-257.48 1247.03,-257.48"/>
<text text-anchor="middle" x="1274.53" y="-269.28" font-family="Arial" font-size="14.00">&lt;=6761.5</text>
</g>
<!-- 1 -->
<g id="node2" class="node">
<title>1</title>
<polygon fill="#fafafa" stroke="#8b8378" stroke-width="0.5" points="1557.03,-387.48 1656.53,-387.48 1656.53,-425.48 1557.03,-425.48 1557.03,-387.48"/>
<polygon fill="mistyrose" stroke="#8b8378" stroke-width="0.5" points="1656.53,-387.48 1756.03,-387.48 1756.03,-425.48 1656.53,-425.48 1656.53,-387.48"/>
<polygon fill="none" stroke="#8b8378" points="1756.03,-425.48 1557.03,-425.48 1557.03,-387.48 1756.03,-387.48 1756.03,-425.48"/>
<text text-anchor="middle" x="1656.53" y="-410.28" font-family="Arial" font-size="14.00" fill="#8b8378">Weight_A</text>
<text text-anchor="middle" x="1656.53" y="-395.28" font-family="Arial" font-size="14.00" fill="#8b8378">[good:195997 / bad:195997]</text>
</g>
<!-- 1&#45;&gt;10 -->
<g id="edge1" class="edge">
<title>1&#45;&gt;10</title>
<path fill="none" stroke="#bababa" d="M1570.96,-387.45C1503.4,-373.22 1409.18,-353.37 1339.15,-338.62"/>
<polygon fill="#bababa" stroke="#bababa" points="1339.5,-335.12 1328.99,-336.48 1338.06,-341.97 1339.5,-335.12"/>
<text text-anchor="middle" x="1488.03" y="-358.28" font-family="Arial" font-size="14.00">&lt;=8</text>
</g>
<!-- 11 -->
<g id="node3" class="node">
<title>11</title>
<polygon fill="#fafafa" stroke="#8b8378" stroke-width="0.5" points="1904.53,-298.48 1991.54,-298.48 1991.54,-336.48 1904.53,-336.48 1904.53,-298.48"/>
<polygon fill="mistyrose" stroke="#8b8378" stroke-width="0.5" points="1991.54,-298.48 2086.53,-298.48 2086.53,-336.48 1991.54,-336.48 1991.54,-298.48"/>
<polygon fill="none" stroke="#8b8378" points="2086.53,-336.48 1904.53,-336.48 1904.53,-298.48 2086.53,-298.48 2086.53,-336.48"/>
<text text-anchor="middle" x="1995.53" y="-321.28" font-family="Arial" font-size="14.00" fill="#8b8378">TimeNow</text>
<text text-anchor="middle" x="1995.53" y="-306.28" font-family="Arial" font-size="14.00" fill="#8b8378">[good:36433 / bad:39777]</text>
</g>
<!-- 1&#45;&gt;11 -->
<g id="edge2" class="edge">
<title>1&#45;&gt;11</title>
<path fill="none" stroke="#bababa" d="M1726.77,-387.45C1781.77,-373.34 1858.3,-353.7 1915.63,-338.99"/>
<polygon fill="#bababa" stroke="#bababa" points="1916.56,-342.36 1925.38,-336.48 1914.82,-335.58 1916.56,-342.36"/>
<text text-anchor="middle" x="1855.03" y="-358.28" font-family="Arial" font-size="14.00">&gt;8</text>
</g>
<!-- 110 -->
<g id="node6" class="node">
<title>110</title>
<polygon fill="#fafafa" stroke="#8b8378" stroke-width="0.5" points="1929.03,-209.48 2060.74,-209.48 2060.74,-247.48 1929.03,-247.48 1929.03,-209.48"/>
<polygon fill="mistyrose" stroke="#8b8378" stroke-width="0.5" points="2060.74,-209.48 2062.03,-209.48 2062.03,-247.48 2060.74,-247.48 2060.74,-209.48"/>
<polygon fill="none" stroke="#8b8378" points="2062.03,-247.48 1929.03,-247.48 1929.03,-209.48 2062.03,-209.48 2062.03,-247.48"/>
<text text-anchor="middle" x="1995.53" y="-232.28" font-family="Arial" font-size="14.00" fill="#8b8378">PTime_B_E</text>
<text text-anchor="middle" x="1995.53" y="-217.28" font-family="Arial" font-size="14.00" fill="#8b8378">[good:307 / bad:3]</text>
</g>
<!-- 11&#45;&gt;110 -->
<g id="edge5" class="edge">
<title>11&#45;&gt;110</title>
<path fill="none" stroke="#bababa" d="M1995.53,-298.45C1995.53,-286.67 1995.53,-271.04 1995.53,-257.64"/>
<polygon fill="#bababa" stroke="#bababa" points="1999.03,-257.48 1995.53,-247.48 1992.03,-257.48 1999.03,-257.48"/>
<text text-anchor="middle" x="2030.53" y="-269.28" font-family="Arial" font-size="14.00">&gt;4191.667</text>
</g>
<!-- 111 -->
<g id="node7" class="node">
<title>111</title>
<polygon fill="#fafafa" stroke="#8b8378" stroke-width="0.5" points="2298.53,-209.48 2385.16,-209.48 2385.16,-247.48 2298.53,-247.48 2298.53,-209.48"/>
<polygon fill="mistyrose" stroke="#8b8378" stroke-width="0.5" points="2385.16,-209.48 2480.53,-209.48 2480.53,-247.48 2385.16,-247.48 2385.16,-209.48"/>
<polygon fill="none" stroke="#8b8378" points="2480.53,-247.48 2298.53,-247.48 2298.53,-209.48 2480.53,-209.48 2480.53,-247.48"/>
<text text-anchor="middle" x="2389.53" y="-232.28" font-family="Arial" font-size="14.00" fill="#8b8378">TimeNow</text>
<text text-anchor="middle" x="2389.53" y="-217.28" font-family="Arial" font-size="14.00" fill="#8b8378">[good:36126 / bad:39774]</text>
</g>
<!-- 11&#45;&gt;111 -->
<g id="edge6" class="edge">
<title>11&#45;&gt;111</title>
<path fill="none" stroke="#bababa" d="M2077.17,-298.45C2141.49,-284.25 2231.14,-264.46 2297.9,-249.71"/>
<polygon fill="#bababa" stroke="#bababa" points="2298.99,-253.06 2308,-247.48 2297.48,-246.22 2298.99,-253.06"/>
<text text-anchor="middle" x="2256.03" y="-269.28" font-family="Arial" font-size="14.00">&lt;=4191.667</text>
</g>
<!-- 1000 -->
<g id="node8" class="node">
<title>1000</title>
<ellipse fill="#fafafa" stroke="#66cdaa" cx="144.53" cy="-131.61" rx="102.56" ry="26.74"/>
<text text-anchor="middle" x="144.53" y="-135.41" font-family="Arial" font-size="14.00" fill="#66cdaa">Good : 766 / Bad : 0</text>
<text text-anchor="middle" x="144.53" y="-120.41" font-family="Arial" font-size="14.00" fill="#66cdaa">Good</text>
</g>
<!-- 100&#45;&gt;1000 -->
<g id="edge7" class="edge">
<title>100&#45;&gt;1000</title>
<path fill="none" stroke="#bababa" d="M309.68,-209.41C279.46,-195.36 237.04,-175.63 202.77,-159.69"/>
<polygon fill="#bababa" stroke="#bababa" points="203.87,-156.35 193.33,-155.3 200.92,-162.7 203.87,-156.35"/>
<text text-anchor="middle" x="298.53" y="-180.28" font-family="Arial" font-size="14.00">&lt;=829.0</text>
</g>
<!-- 1001 -->
<g id="node9" class="node">
<title>1001</title>
<polygon fill="#fafafa" stroke="#8b8378" stroke-width="0.5" points="265.53,-112.61 339.37,-112.61 339.37,-150.61 265.53,-150.61 265.53,-112.61"/>
<polygon fill="mistyrose" stroke="#8b8378" stroke-width="0.5" points="339.37,-112.61 431.53,-112.61 431.53,-150.61 339.37,-150.61 339.37,-112.61"/>
<polygon fill="none" stroke="#8b8378" points="431.53,-150.61 265.53,-150.61 265.53,-112.61 431.53,-112.61 431.53,-150.61"/>
<text text-anchor="middle" x="348.53" y="-135.41" font-family="Arial" font-size="14.00" fill="#8b8378">Due_B</text>
<text text-anchor="middle" x="348.53" y="-120.41" font-family="Arial" font-size="14.00" fill="#8b8378">[good:1217 / bad:1519]</text>
</g>
<!-- 100&#45;&gt;1001 -->
<g id="edge8" class="edge">
<title>100&#45;&gt;1001</title>
<path fill="none" stroke="#bababa" d="M348.53,-209.19C348.53,-195.54 348.53,-176.63 348.53,-161.02"/>
<polygon fill="#bababa" stroke="#bababa" points="352.03,-160.85 348.53,-150.85 345.03,-160.85 352.03,-160.85"/>
<text text-anchor="middle" x="371.53" y="-180.28" font-family="Arial" font-size="14.00">&gt;829.0</text>
</g>
<!-- 1010 -->
<g id="node10" class="node">
<title>1010</title>
<polygon fill="#fafafa" stroke="#8b8378" stroke-width="0.5" points="747.53,-112.61 830.9,-112.61 830.9,-150.61 747.53,-150.61 747.53,-112.61"/>
<polygon fill="mistyrose" stroke="#8b8378" stroke-width="0.5" points="830.9,-112.61 913.53,-112.61 913.53,-150.61 830.9,-150.61 830.9,-112.61"/>
<polygon fill="none" stroke="#8b8378" points="913.53,-150.61 747.53,-150.61 747.53,-112.61 913.53,-112.61 913.53,-150.61"/>
<text text-anchor="middle" x="830.53" y="-135.41" font-family="Arial" font-size="14.00" fill="#8b8378">TimeNow</text>
<text text-anchor="middle" x="830.53" y="-120.41" font-family="Arial" font-size="14.00" fill="#8b8378">[good:3277 / bad:3248]</text>
</g>
<!-- 101&#45;&gt;1010 -->
<g id="edge9" class="edge">
<title>101&#45;&gt;1010</title>
<path fill="none" stroke="#bababa" d="M1164.88,-209.41C1094.69,-193.29 992.02,-169.7 918.99,-152.93"/>
<polygon fill="#bababa" stroke="#bababa" points="919.42,-149.44 908.89,-150.61 917.85,-156.26 919.42,-149.44"/>
<text text-anchor="middle" x="1091.03" y="-180.28" font-family="Arial" font-size="14.00">2</text>
</g>
<!-- 1011 -->
<g id="node11" class="node">
<title>1011</title>
<polygon fill="#fafafa" stroke="#8b8378" stroke-width="0.5" points="1144.03,-112.61 1244.19,-112.61 1244.19,-150.61 1144.03,-150.61 1144.03,-112.61"/>
<polygon fill="mistyrose" stroke="#8b8378" stroke-width="0.5" points="1244.19,-112.61 1343.03,-112.61 1343.03,-150.61 1244.19,-150.61 1244.19,-112.61"/>
<polygon fill="none" stroke="#8b8378" points="1343.03,-150.61 1144.03,-150.61 1144.03,-112.61 1343.03,-112.61 1343.03,-150.61"/>
<text text-anchor="middle" x="1243.53" y="-135.41" font-family="Arial" font-size="14.00" fill="#8b8378">Due_Max</text>
<text text-anchor="middle" x="1243.53" y="-120.41" font-family="Arial" font-size="14.00" fill="#8b8378">[good:150704 / bad:148717]</text>
</g>
<!-- 101&#45;&gt;1011 -->
<g id="edge10" class="edge">
<title>101&#45;&gt;1011</title>
<path fill="none" stroke="#bababa" d="M1243.53,-209.19C1243.53,-195.54 1243.53,-176.63 1243.53,-161.02"/>
<polygon fill="#bababa" stroke="#bababa" points="1247.03,-160.85 1243.53,-150.85 1240.03,-160.85 1247.03,-160.85"/>
<text text-anchor="middle" x="1248.03" y="-180.28" font-family="Arial" font-size="14.00">1</text>
</g>
<!-- 1012 -->
<g id="node12" class="node">
<title>1012</title>
<polygon fill="#fafafa" stroke="#8b8378" stroke-width="0.5" points="1509.53,-112.61 1603.85,-112.61 1603.85,-150.61 1509.53,-150.61 1509.53,-112.61"/>
<polygon fill="mistyrose" stroke="#8b8378" stroke-width="0.5" points="1603.85,-112.61 1675.53,-112.61 1675.53,-150.61 1603.85,-150.61 1603.85,-112.61"/>
<polygon fill="none" stroke="#8b8378" points="1675.53,-150.61 1509.53,-150.61 1509.53,-112.61 1675.53,-112.61 1675.53,-150.61"/>
<text text-anchor="middle" x="1592.53" y="-135.41" font-family="Arial" font-size="14.00" fill="#8b8378">TimeNow</text>
<text text-anchor="middle" x="1592.53" y="-120.41" font-family="Arial" font-size="14.00" fill="#8b8378">[good:3600 / bad:2736]</text>
</g>
<!-- 101&#45;&gt;1012 -->
<g id="edge11" class="edge">
<title>101&#45;&gt;1012</title>
<path fill="none" stroke="#bababa" d="M1310,-209.41C1368.94,-193.39 1455.01,-169.99 1516.64,-153.24"/>
<polygon fill="#bababa" stroke="#bababa" points="1517.58,-156.61 1526.31,-150.61 1515.74,-149.86 1517.58,-156.61"/>
<text text-anchor="middle" x="1433.03" y="-180.28" font-family="Arial" font-size="14.00">0</text>
</g>
<!-- 1100 -->
<g id="node13" class="node">
<title>1100</title>
<ellipse fill="#fafafa" stroke="#66cdaa" cx="1784.53" cy="-131.61" rx="90.52" ry="26.74"/>
<text text-anchor="middle" x="1784.53" y="-135.41" font-family="Arial" font-size="14.00" fill="#66cdaa">Good : 0 / Bad : 2</text>
<text text-anchor="middle" x="1784.53" y="-120.41" font-family="Arial" font-size="14.00" fill="#66cdaa">Bad</text>
</g>
<!-- 110&#45;&gt;1100 -->
<g id="edge12" class="edge">
<title>110&#45;&gt;1100</title>
<path fill="none" stroke="#bababa" d="M1955.35,-209.41C1923.41,-195.05 1878.3,-174.77 1842.45,-158.65"/>
<polygon fill="#bababa" stroke="#bababa" points="1843.64,-155.35 1833.08,-154.44 1840.77,-161.73 1843.64,-155.35"/>
<text text-anchor="middle" x="1920.03" y="-180.28" font-family="Arial" font-size="14.00">2</text>
</g>
<!-- 1101 -->
<g id="node14" class="node">
<title>1101</title>
<ellipse fill="#fafafa" stroke="#66cdaa" cx="1995.53" cy="-131.61" rx="102.56" ry="26.74"/>
<text text-anchor="middle" x="1995.53" y="-135.41" font-family="Arial" font-size="14.00" fill="#66cdaa">Good : 307 / Bad : 0</text>
<text text-anchor="middle" x="1995.53" y="-120.41" font-family="Arial" font-size="14.00" fill="#66cdaa">Good</text>
</g>
<!-- 110&#45;&gt;1101 -->
<g id="edge13" class="edge">
<title>110&#45;&gt;1101</title>
<path fill="none" stroke="#bababa" d="M1995.53,-209.19C1995.53,-197.78 1995.53,-182.69 1995.53,-168.92"/>
<polygon fill="#bababa" stroke="#bababa" points="1999.03,-168.74 1995.53,-158.74 1992.03,-168.74 1999.03,-168.74"/>
<text text-anchor="middle" x="2000.03" y="-180.28" font-family="Arial" font-size="14.00">1</text>
</g>
<!-- 1102 -->
<g id="node15" class="node">
<title>1102</title>
<ellipse fill="#fafafa" stroke="#66cdaa" cx="2206.53" cy="-131.61" rx="90.52" ry="26.74"/>
<text text-anchor="middle" x="2206.53" y="-135.41" font-family="Arial" font-size="14.00" fill="#66cdaa">Good : 0 / Bad : 1</text>
<text text-anchor="middle" x="2206.53" y="-120.41" font-family="Arial" font-size="14.00" fill="#66cdaa">Bad</text>
</g>
<!-- 110&#45;&gt;1102 -->
<g id="edge14" class="edge">
<title>110&#45;&gt;1102</title>
<path fill="none" stroke="#bababa" d="M2035.71,-209.41C2067.66,-195.05 2112.76,-174.77 2148.61,-158.65"/>
<polygon fill="#bababa" stroke="#bababa" points="2150.29,-161.73 2157.98,-154.44 2147.42,-155.35 2150.29,-161.73"/>
<text text-anchor="middle" x="2112.03" y="-180.28" font-family="Arial" font-size="14.00">0</text>
</g>
<!-- 1110 -->
<g id="node16" class="node">
<title>1110</title>
<polygon fill="#fafafa" stroke="#8b8378" stroke-width="0.5" points="2315.03,-112.61 2407.1,-112.61 2407.1,-150.61 2315.03,-150.61 2315.03,-112.61"/>
<polygon fill="mistyrose" stroke="#8b8378" stroke-width="0.5" points="2407.1,-112.61 2464.03,-112.61 2464.03,-150.61 2407.1,-150.61 2407.1,-112.61"/>
<polygon fill="none" stroke="#8b8378" points="2464.03,-150.61 2315.03,-150.61 2315.03,-112.61 2464.03,-112.61 2464.03,-150.61"/>
<text text-anchor="middle" x="2389.53" y="-135.41" font-family="Arial" font-size="14.00" fill="#8b8378">Due_A</text>
<text text-anchor="middle" x="2389.53" y="-120.41" font-family="Arial" font-size="14.00" fill="#8b8378">[good:744 / bad:460]</text>
</g>
<!-- 111&#45;&gt;1110 -->
<g id="edge15" class="edge">
<title>111&#45;&gt;1110</title>
<path fill="none" stroke="#bababa" d="M2389.53,-209.19C2389.53,-195.54 2389.53,-176.63 2389.53,-161.02"/>
<polygon fill="#bababa" stroke="#bababa" points="2393.03,-160.85 2389.53,-150.85 2386.03,-160.85 2393.03,-160.85"/>
<text text-anchor="middle" x="2424.53" y="-180.28" font-family="Arial" font-size="14.00">&gt;3489.167</text>
</g>
<!-- 1111 -->
<g id="node17" class="node">
<title>1111</title>
<polygon fill="#fafafa" stroke="#8b8378" stroke-width="0.5" points="2699.53,-112.61 2785.74,-112.61 2785.74,-150.61 2699.53,-150.61 2699.53,-112.61"/>
<polygon fill="mistyrose" stroke="#8b8378" stroke-width="0.5" points="2785.74,-112.61 2881.53,-112.61 2881.53,-150.61 2785.74,-150.61 2785.74,-112.61"/>
<polygon fill="none" stroke="#8b8378" points="2881.53,-150.61 2699.53,-150.61 2699.53,-112.61 2881.53,-112.61 2881.53,-150.61"/>
<text text-anchor="middle" x="2790.53" y="-135.41" font-family="Arial" font-size="14.00" fill="#8b8378">PTime_A_E</text>
<text text-anchor="middle" x="2790.53" y="-120.41" font-family="Arial" font-size="14.00" fill="#8b8378">[good:35382 / bad:39314]</text>
</g>
<!-- 111&#45;&gt;1111 -->
<g id="edge16" class="edge">
<title>111&#45;&gt;1111</title>
<path fill="none" stroke="#bababa" d="M2465.9,-209.41C2534.05,-193.29 2633.74,-169.7 2704.64,-152.93"/>
<polygon fill="#bababa" stroke="#bababa" points="2705.52,-156.32 2714.45,-150.61 2703.91,-149.51 2705.52,-156.32"/>
<text text-anchor="middle" x="2642.03" y="-180.28" font-family="Arial" font-size="14.00">&lt;=3489.167</text>
</g>
<!-- 10010 -->
<g id="node18" class="node">
<title>10010</title>
<ellipse fill="#fafafa" stroke="#66cdaa" cx="102.53" cy="-26.87" rx="102.56" ry="26.74"/>
<text text-anchor="middle" x="102.53" y="-30.67" font-family="Arial" font-size="14.00" fill="#66cdaa">Good : 0 / Bad : 238</text>
<text text-anchor="middle" x="102.53" y="-15.67" font-family="Arial" font-size="14.00" fill="#66cdaa">Bad</text>
</g>
<!-- 1001&#45;&gt;10010 -->
<g id="edge17" class="edge">
<title>1001&#45;&gt;10010</title>
<path fill="none" stroke="#bababa" d="M305.4,-112.6C266.5,-96.35 208.83,-72.26 164.91,-53.92"/>
<polygon fill="#bababa" stroke="#bababa" points="166.05,-50.61 155.47,-49.98 163.35,-57.06 166.05,-50.61"/>
<text text-anchor="middle" x="280.03" y="-75.54" font-family="Arial" font-size="14.00">&lt;=1315.333</text>
</g>
<!-- 10011 -->
<g id="node19" class="node">
<title>10011</title>
<ellipse fill="#fafafa" stroke="#66cdaa" cx="348.53" cy="-26.87" rx="125.73" ry="26.74"/>
<text text-anchor="middle" x="348.53" y="-30.67" font-family="Arial" font-size="14.00" fill="#66cdaa">Good : 1217 / Bad : 1281</text>
<text text-anchor="middle" x="348.53" y="-15.67" font-family="Arial" font-size="14.00" fill="#66cdaa">Bad</text>
</g>
<!-- 1001&#45;&gt;10011 -->
<g id="edge18" class="edge">
<title>1001&#45;&gt;10011</title>
<path fill="none" stroke="#bababa" d="M348.53,-112.24C348.53,-98.89 348.53,-80.38 348.53,-64.1"/>
<polygon fill="#bababa" stroke="#bababa" points="352.03,-63.8 348.53,-53.8 345.03,-63.8 352.03,-63.8"/>
<text text-anchor="middle" x="383.53" y="-75.54" font-family="Arial" font-size="14.00">&gt;1315.333</text>
</g>
<!-- 10100 -->
<g id="node20" class="node">
<title>10100</title>
<ellipse fill="#fafafa" stroke="#66cdaa" cx="589.53" cy="-26.87" rx="96.75" ry="26.74"/>
<text text-anchor="middle" x="589.53" y="-30.67" font-family="Arial" font-size="14.00" fill="#66cdaa">Good : 31 / Bad : 0</text>
<text text-anchor="middle" x="589.53" y="-15.67" font-family="Arial" font-size="14.00" fill="#66cdaa">Good</text>
</g>
<!-- 1010&#45;&gt;10100 -->
<g id="edge19" class="edge">
<title>1010&#45;&gt;10100</title>
<path fill="none" stroke="#bababa" d="M788.28,-112.6C750.04,-96.3 693.29,-72.11 650.21,-53.74"/>
<polygon fill="#bababa" stroke="#bababa" points="651.53,-50.5 640.96,-49.8 648.79,-56.94 651.53,-50.5"/>
<text text-anchor="middle" x="759.53" y="-75.54" font-family="Arial" font-size="14.00">&gt;4191.667</text>
</g>
<!-- 10101 -->
<g id="node21" class="node">
<title>10101</title>
<ellipse fill="#fafafa" stroke="#66cdaa" cx="830.53" cy="-26.87" rx="125.73" ry="26.74"/>
<text text-anchor="middle" x="830.53" y="-30.67" font-family="Arial" font-size="14.00" fill="#66cdaa">Good : 3246 / Bad : 3248</text>
<text text-anchor="middle" x="830.53" y="-15.67" font-family="Arial" font-size="14.00" fill="#66cdaa">Bad</text>
</g>
<!-- 1010&#45;&gt;10101 -->
<g id="edge20" class="edge">
<title>1010&#45;&gt;10101</title>
<path fill="none" stroke="#bababa" d="M830.53,-112.24C830.53,-98.89 830.53,-80.38 830.53,-64.1"/>
<polygon fill="#bababa" stroke="#bababa" points="834.03,-63.8 830.53,-53.8 827.03,-63.8 834.03,-63.8"/>
<text text-anchor="middle" x="870.03" y="-75.54" font-family="Arial" font-size="14.00">&lt;=4191.667</text>
</g>
<!-- 10110 -->
<g id="node22" class="node">
<title>10110</title>
<ellipse fill="#fafafa" stroke="#66cdaa" cx="1123.53" cy="-26.87" rx="149.4" ry="26.74"/>
<text text-anchor="middle" x="1123.53" y="-30.67" font-family="Arial" font-size="14.00" fill="#66cdaa">Good : 150606 / Bad : 148654</text>
<text text-anchor="middle" x="1123.53" y="-15.67" font-family="Arial" font-size="14.00" fill="#66cdaa">Good</text>
</g>
<!-- 1011&#45;&gt;10110 -->
<g id="edge21" class="edge">
<title>1011&#45;&gt;10110</title>
<path fill="none" stroke="#bababa" d="M1222.35,-112.48C1205.48,-98.04 1181.44,-77.45 1161.29,-60.2"/>
<polygon fill="#bababa" stroke="#bababa" points="1163.37,-57.37 1153.5,-53.53 1158.82,-62.69 1163.37,-57.37"/>
<text text-anchor="middle" x="1214.53" y="-75.54" font-family="Arial" font-size="14.00">&gt;392.0</text>
</g>
<!-- 10111 -->
<g id="node23" class="node">
<title>10111</title>
<ellipse fill="#fafafa" stroke="#66cdaa" cx="1393.53" cy="-26.87" rx="102.56" ry="26.74"/>
<text text-anchor="middle" x="1393.53" y="-30.67" font-family="Arial" font-size="14.00" fill="#66cdaa">Good : 98 / Bad : 63</text>
<text text-anchor="middle" x="1393.53" y="-15.67" font-family="Arial" font-size="14.00" fill="#66cdaa">Good</text>
</g>
<!-- 1011&#45;&gt;10111 -->
<g id="edge22" class="edge">
<title>1011&#45;&gt;10111</title>
<path fill="none" stroke="#bababa" d="M1270,-112.48C1291.99,-97.42 1323.73,-75.68 1349.53,-58"/>
<polygon fill="#bababa" stroke="#bababa" points="1351.76,-60.72 1358.03,-52.18 1347.81,-54.95 1351.76,-60.72"/>
<text text-anchor="middle" x="1354.53" y="-75.54" font-family="Arial" font-size="14.00">&lt;=392.0</text>
</g>
<!-- 10120 -->
<g id="node24" class="node">
<title>10120</title>
<ellipse fill="#fafafa" stroke="#66cdaa" cx="1639.53" cy="-26.87" rx="125.73" ry="26.74"/>
<text text-anchor="middle" x="1639.53" y="-30.67" font-family="Arial" font-size="14.00" fill="#66cdaa">Good : 3534 / Bad : 2736</text>
<text text-anchor="middle" x="1639.53" y="-15.67" font-family="Arial" font-size="14.00" fill="#66cdaa">Good</text>
</g>
<!-- 1012&#45;&gt;10120 -->
<g id="edge23" class="edge">
<title>1012&#45;&gt;10120</title>
<path fill="none" stroke="#bababa" d="M1600.93,-112.24C1607.16,-98.64 1615.83,-79.67 1623.38,-63.17"/>
<polygon fill="#bababa" stroke="#bababa" points="1626.69,-64.35 1627.67,-53.8 1620.33,-61.44 1626.69,-64.35"/>
<text text-anchor="middle" x="1659.03" y="-75.54" font-family="Arial" font-size="14.00">&lt;=3921.667</text>
</g>
<!-- 10121 -->
<g id="node25" class="node">
<title>10121</title>
<ellipse fill="#fafafa" stroke="#66cdaa" cx="1880.53" cy="-26.87" rx="96.75" ry="26.74"/>
<text text-anchor="middle" x="1880.53" y="-30.67" font-family="Arial" font-size="14.00" fill="#66cdaa">Good : 66 / Bad : 0</text>
<text text-anchor="middle" x="1880.53" y="-15.67" font-family="Arial" font-size="14.00" fill="#66cdaa">Good</text>
</g>
<!-- 1012&#45;&gt;10121 -->
<g id="edge24" class="edge">
<title>1012&#45;&gt;10121</title>
<path fill="none" stroke="#bababa" d="M1643.03,-112.6C1690.26,-95.75 1761.13,-70.46 1813.17,-51.9"/>
<polygon fill="#bababa" stroke="#bababa" points="1814.41,-55.17 1822.66,-48.52 1812.06,-48.58 1814.41,-55.17"/>
<text text-anchor="middle" x="1789.53" y="-75.54" font-family="Arial" font-size="14.00">&gt;3921.667</text>
</g>
<!-- 11100 -->
<g id="node26" class="node">
<title>11100</title>
<ellipse fill="#fafafa" stroke="#66cdaa" cx="2155.53" cy="-26.87" rx="113.69" ry="26.74"/>
<text text-anchor="middle" x="2155.53" y="-30.67" font-family="Arial" font-size="14.00" fill="#66cdaa">Good : 316 / Bad : 460</text>
<text text-anchor="middle" x="2155.53" y="-15.67" font-family="Arial" font-size="14.00" fill="#66cdaa">Bad</text>
</g>
<!-- 1110&#45;&gt;11100 -->
<g id="edge25" class="edge">
<title>1110&#45;&gt;11100</title>
<path fill="none" stroke="#bababa" d="M2348.5,-112.6C2312.19,-96.65 2258.67,-73.16 2217.2,-54.95"/>
<polygon fill="#bababa" stroke="#bababa" points="2218.58,-51.73 2208.01,-50.91 2215.76,-58.14 2218.58,-51.73"/>
<text text-anchor="middle" x="2322.53" y="-75.54" font-family="Arial" font-size="14.00">&gt;2700.667</text>
</g>
<!-- 11101 -->
<g id="node27" class="node">
<title>11101</title>
<ellipse fill="#fafafa" stroke="#66cdaa" cx="2389.53" cy="-26.87" rx="102.56" ry="26.74"/>
<text text-anchor="middle" x="2389.53" y="-30.67" font-family="Arial" font-size="14.00" fill="#66cdaa">Good : 428 / Bad : 0</text>
<text text-anchor="middle" x="2389.53" y="-15.67" font-family="Arial" font-size="14.00" fill="#66cdaa">Good</text>
</g>
<!-- 1110&#45;&gt;11101 -->
<g id="edge26" class="edge">
<title>1110&#45;&gt;11101</title>
<path fill="none" stroke="#bababa" d="M2389.53,-112.24C2389.53,-98.89 2389.53,-80.38 2389.53,-64.1"/>
<polygon fill="#bababa" stroke="#bababa" points="2393.03,-63.8 2389.53,-53.8 2386.03,-63.8 2393.03,-63.8"/>
<text text-anchor="middle" x="2429.03" y="-75.54" font-family="Arial" font-size="14.00">&lt;=2700.667</text>
</g>
<!-- 11110 -->
<g id="node28" class="node">
<title>11110</title>
<ellipse fill="#fafafa" stroke="#66cdaa" cx="2623.53" cy="-26.87" rx="113.69" ry="26.74"/>
<text text-anchor="middle" x="2623.53" y="-30.67" font-family="Arial" font-size="14.00" fill="#66cdaa">Good : 669 / Bad : 444</text>
<text text-anchor="middle" x="2623.53" y="-15.67" font-family="Arial" font-size="14.00" fill="#66cdaa">Good</text>
</g>
<!-- 1111&#45;&gt;11110 -->
<g id="edge27" class="edge">
<title>1111&#45;&gt;11110</title>
<path fill="none" stroke="#bababa" d="M2761.06,-112.48C2736.36,-97.29 2700.62,-75.3 2671.77,-57.54"/>
<polygon fill="#bababa" stroke="#bababa" points="2673.4,-54.44 2663.05,-52.18 2669.73,-60.4 2673.4,-54.44"/>
<text text-anchor="middle" x="2722.03" y="-75.54" font-family="Arial" font-size="14.00">2</text>
</g>
<!-- 11111 -->
<g id="node29" class="node">
<title>11111</title>
<ellipse fill="#fafafa" stroke="#66cdaa" cx="2892.53" cy="-26.87" rx="137.36" ry="26.74"/>
<text text-anchor="middle" x="2892.53" y="-30.67" font-family="Arial" font-size="14.00" fill="#66cdaa">Good : 34087 / Bad : 37613</text>
<text text-anchor="middle" x="2892.53" y="-15.67" font-family="Arial" font-size="14.00" fill="#66cdaa">Bad</text>
</g>
<!-- 1111&#45;&gt;11111 -->
<g id="edge28" class="edge">
<title>1111&#45;&gt;11111</title>
<path fill="none" stroke="#bababa" d="M2808.77,-112.24C2823.01,-97.9 2843.15,-77.6 2860.12,-60.51"/>
<polygon fill="#bababa" stroke="#bababa" points="2862.61,-62.97 2867.17,-53.41 2857.64,-58.04 2862.61,-62.97"/>
<text text-anchor="middle" x="2853.03" y="-75.54" font-family="Arial" font-size="14.00">1</text>
</g>
<!-- 11112 -->
<g id="node30" class="node">
<title>11112</title>
<ellipse fill="#fafafa" stroke="#66cdaa" cx="3167.53" cy="-26.87" rx="120.42" ry="26.74"/>
<text text-anchor="middle" x="3167.53" y="-30.67" font-family="Arial" font-size="14.00" fill="#66cdaa">Good : 626 / Bad : 1257</text>
<text text-anchor="middle" x="3167.53" y="-15.67" font-family="Arial" font-size="14.00" fill="#66cdaa">Bad</text>
</g>
<!-- 1111&#45;&gt;11112 -->
<g id="edge29" class="edge">
<title>1111&#45;&gt;11112</title>
<path fill="none" stroke="#bababa" d="M2856.63,-112.6C2919.73,-95.4 3015.07,-69.42 3083.53,-50.76"/>
<polygon fill="#bababa" stroke="#bababa" points="3084.7,-54.07 3093.43,-48.07 3082.86,-47.32 3084.7,-54.07"/>
<text text-anchor="middle" x="3007.03" y="-75.54" font-family="Arial" font-size="14.00">0</text>
</g>
</g>
</svg>
